<mxfile host="app.diagrams.net" agent="Mozilla/5.0 (Windows NT 10.0; Win64; x64) AppleWebKit/537.36 (KHTML, like Gecko) Chrome/126.0.0.0 Safari/537.36" version="24.7.6">
  <diagram name="Page-1" id="lduu6q1h9rY7DhI_inUN">
    <mxGraphModel dx="3183" dy="1238" grid="1" gridSize="10" guides="1" tooltips="1" connect="1" arrows="1" fold="1" page="1" pageScale="1" pageWidth="850" pageHeight="1100" math="0" shadow="0">
      <root>
        <mxCell id="0" />
        <mxCell id="1" parent="0" />
        <mxCell id="nq5gijTAwXcT7DccCSNR-3" value="" style="edgeStyle=orthogonalEdgeStyle;rounded=0;orthogonalLoop=1;jettySize=auto;html=1;" edge="1" parent="1" source="nq5gijTAwXcT7DccCSNR-1" target="nq5gijTAwXcT7DccCSNR-2">
          <mxGeometry relative="1" as="geometry" />
        </mxCell>
        <mxCell id="nq5gijTAwXcT7DccCSNR-1" value="START" style="strokeWidth=2;html=1;shape=mxgraph.flowchart.start_1;whiteSpace=wrap;" vertex="1" parent="1">
          <mxGeometry y="10" width="100" height="60" as="geometry" />
        </mxCell>
        <mxCell id="nq5gijTAwXcT7DccCSNR-5" value="" style="edgeStyle=orthogonalEdgeStyle;rounded=0;orthogonalLoop=1;jettySize=auto;html=1;" edge="1" parent="1" source="nq5gijTAwXcT7DccCSNR-2" target="nq5gijTAwXcT7DccCSNR-4">
          <mxGeometry relative="1" as="geometry" />
        </mxCell>
        <mxCell id="nq5gijTAwXcT7DccCSNR-2" value="&lt;div&gt;deque toVist&lt;/div&gt;deque currPath&lt;div&gt;set walls&lt;/div&gt;&lt;div&gt;currX, currY&lt;/div&gt;" style="shape=parallelogram;perimeter=parallelogramPerimeter;whiteSpace=wrap;html=1;fixedSize=1;strokeWidth=2;" vertex="1" parent="1">
          <mxGeometry x="-50" y="120" width="200" height="90" as="geometry" />
        </mxCell>
        <mxCell id="nq5gijTAwXcT7DccCSNR-8" value="" style="edgeStyle=orthogonalEdgeStyle;rounded=0;orthogonalLoop=1;jettySize=auto;html=1;" edge="1" parent="1" source="nq5gijTAwXcT7DccCSNR-4" target="nq5gijTAwXcT7DccCSNR-7">
          <mxGeometry relative="1" as="geometry" />
        </mxCell>
        <mxCell id="nq5gijTAwXcT7DccCSNR-10" value="" style="edgeStyle=orthogonalEdgeStyle;rounded=0;orthogonalLoop=1;jettySize=auto;html=1;" edge="1" parent="1" source="nq5gijTAwXcT7DccCSNR-4" target="nq5gijTAwXcT7DccCSNR-9">
          <mxGeometry relative="1" as="geometry" />
        </mxCell>
        <mxCell id="nq5gijTAwXcT7DccCSNR-4" value="if (currX, currY) = (centerX, centerY)" style="rhombus;whiteSpace=wrap;html=1;strokeWidth=2;" vertex="1" parent="1">
          <mxGeometry x="-20" y="270" width="140" height="120" as="geometry" />
        </mxCell>
        <mxCell id="nq5gijTAwXcT7DccCSNR-32" value="" style="edgeStyle=orthogonalEdgeStyle;rounded=0;orthogonalLoop=1;jettySize=auto;html=1;" edge="1" parent="1" source="nq5gijTAwXcT7DccCSNR-7" target="nq5gijTAwXcT7DccCSNR-31">
          <mxGeometry relative="1" as="geometry" />
        </mxCell>
        <mxCell id="nq5gijTAwXcT7DccCSNR-7" value="return Path" style="whiteSpace=wrap;html=1;strokeWidth=2;" vertex="1" parent="1">
          <mxGeometry x="210" y="300" width="120" height="60" as="geometry" />
        </mxCell>
        <mxCell id="nq5gijTAwXcT7DccCSNR-14" value="" style="edgeStyle=orthogonalEdgeStyle;rounded=0;orthogonalLoop=1;jettySize=auto;html=1;" edge="1" parent="1" source="nq5gijTAwXcT7DccCSNR-9">
          <mxGeometry relative="1" as="geometry">
            <mxPoint x="50" y="640" as="targetPoint" />
          </mxGeometry>
        </mxCell>
        <mxCell id="nq5gijTAwXcT7DccCSNR-9" value="get wall distance&amp;nbsp;&lt;div&gt;left, right, front&lt;/div&gt;&lt;div&gt;(IR Sensor)&lt;/div&gt;" style="whiteSpace=wrap;html=1;strokeWidth=2;" vertex="1" parent="1">
          <mxGeometry x="-20" y="450" width="140" height="80" as="geometry" />
        </mxCell>
        <mxCell id="nq5gijTAwXcT7DccCSNR-11" value="Yes" style="text;html=1;align=center;verticalAlign=middle;resizable=0;points=[];autosize=1;strokeColor=none;fillColor=none;" vertex="1" parent="1">
          <mxGeometry x="140" y="300" width="40" height="30" as="geometry" />
        </mxCell>
        <mxCell id="nq5gijTAwXcT7DccCSNR-12" value="No" style="text;html=1;align=center;verticalAlign=middle;resizable=0;points=[];autosize=1;strokeColor=none;fillColor=none;" vertex="1" parent="1">
          <mxGeometry x="50" y="408" width="40" height="30" as="geometry" />
        </mxCell>
        <mxCell id="nq5gijTAwXcT7DccCSNR-17" value="" style="edgeStyle=orthogonalEdgeStyle;rounded=0;orthogonalLoop=1;jettySize=auto;html=1;" edge="1" parent="1" source="nq5gijTAwXcT7DccCSNR-15" target="nq5gijTAwXcT7DccCSNR-16">
          <mxGeometry relative="1" as="geometry" />
        </mxCell>
        <mxCell id="nq5gijTAwXcT7DccCSNR-15" value="Store Walls&lt;div&gt;Add (currX, currY) to currPath&lt;/div&gt;" style="shape=parallelogram;html=1;strokeWidth=2;perimeter=parallelogramPerimeter;whiteSpace=wrap;rounded=1;arcSize=12;size=0.23;" vertex="1" parent="1">
          <mxGeometry x="-80" y="600" width="260" height="90" as="geometry" />
        </mxCell>
        <mxCell id="nq5gijTAwXcT7DccCSNR-19" value="" style="edgeStyle=orthogonalEdgeStyle;rounded=0;orthogonalLoop=1;jettySize=auto;html=1;" edge="1" parent="1" source="nq5gijTAwXcT7DccCSNR-16" target="nq5gijTAwXcT7DccCSNR-18">
          <mxGeometry relative="1" as="geometry" />
        </mxCell>
        <mxCell id="nq5gijTAwXcT7DccCSNR-22" value="" style="edgeStyle=orthogonalEdgeStyle;rounded=0;orthogonalLoop=1;jettySize=auto;html=1;" edge="1" parent="1" source="nq5gijTAwXcT7DccCSNR-16" target="nq5gijTAwXcT7DccCSNR-21">
          <mxGeometry relative="1" as="geometry" />
        </mxCell>
        <mxCell id="nq5gijTAwXcT7DccCSNR-16" value="if cell accessible and has least manhattan distance from centers" style="rhombus;whiteSpace=wrap;html=1;strokeWidth=2;rounded=1;arcSize=12;" vertex="1" parent="1">
          <mxGeometry x="-60" y="740" width="220" height="160" as="geometry" />
        </mxCell>
        <mxCell id="nq5gijTAwXcT7DccCSNR-18" value="NULL" style="whiteSpace=wrap;html=1;strokeWidth=2;rounded=1;arcSize=12;" vertex="1" parent="1">
          <mxGeometry x="260" y="790" width="120" height="60" as="geometry" />
        </mxCell>
        <mxCell id="nq5gijTAwXcT7DccCSNR-20" value="No" style="text;html=1;align=center;verticalAlign=middle;resizable=0;points=[];autosize=1;strokeColor=none;fillColor=none;" vertex="1" parent="1">
          <mxGeometry x="185" y="790" width="40" height="30" as="geometry" />
        </mxCell>
        <mxCell id="nq5gijTAwXcT7DccCSNR-24" style="edgeStyle=orthogonalEdgeStyle;rounded=0;orthogonalLoop=1;jettySize=auto;html=1;" edge="1" parent="1" source="nq5gijTAwXcT7DccCSNR-21" target="nq5gijTAwXcT7DccCSNR-25">
          <mxGeometry relative="1" as="geometry">
            <mxPoint x="-230" y="650" as="targetPoint" />
          </mxGeometry>
        </mxCell>
        <mxCell id="nq5gijTAwXcT7DccCSNR-21" value="Append (currX, currY) to toVisit" style="rounded=1;whiteSpace=wrap;html=1;strokeWidth=2;arcSize=12;" vertex="1" parent="1">
          <mxGeometry x="-10" y="980" width="120" height="60" as="geometry" />
        </mxCell>
        <mxCell id="nq5gijTAwXcT7DccCSNR-23" value="Yes" style="text;html=1;align=center;verticalAlign=middle;resizable=0;points=[];autosize=1;strokeColor=none;fillColor=none;" vertex="1" parent="1">
          <mxGeometry x="60" y="918" width="40" height="30" as="geometry" />
        </mxCell>
        <mxCell id="nq5gijTAwXcT7DccCSNR-37" value="" style="edgeStyle=orthogonalEdgeStyle;rounded=0;orthogonalLoop=1;jettySize=auto;html=1;" edge="1" parent="1" source="nq5gijTAwXcT7DccCSNR-25" target="nq5gijTAwXcT7DccCSNR-34">
          <mxGeometry relative="1" as="geometry" />
        </mxCell>
        <mxCell id="nq5gijTAwXcT7DccCSNR-25" value="Remove back of toVisit&lt;div&gt;(x, y)&lt;/div&gt;" style="rounded=1;whiteSpace=wrap;html=1;absoluteArcSize=1;arcSize=14;strokeWidth=2;" vertex="1" parent="1">
          <mxGeometry x="-280" y="750" width="160" height="100" as="geometry" />
        </mxCell>
        <mxCell id="nq5gijTAwXcT7DccCSNR-29" style="edgeStyle=orthogonalEdgeStyle;rounded=0;orthogonalLoop=1;jettySize=auto;html=1;entryX=0;entryY=0.5;entryDx=0;entryDy=0;" edge="1" parent="1" source="nq5gijTAwXcT7DccCSNR-27" target="nq5gijTAwXcT7DccCSNR-4">
          <mxGeometry relative="1" as="geometry">
            <Array as="points">
              <mxPoint x="-200" y="330" />
            </Array>
          </mxGeometry>
        </mxCell>
        <mxCell id="nq5gijTAwXcT7DccCSNR-27" value="move to (x, y) from (currX, currY)" style="rounded=1;whiteSpace=wrap;html=1;absoluteArcSize=1;arcSize=14;strokeWidth=2;" vertex="1" parent="1">
          <mxGeometry x="-260" y="390" width="120" height="90" as="geometry" />
        </mxCell>
        <mxCell id="nq5gijTAwXcT7DccCSNR-31" value="End" style="strokeWidth=2;html=1;shape=mxgraph.flowchart.start_1;whiteSpace=wrap;" vertex="1" parent="1">
          <mxGeometry x="220" y="420" width="100" height="60" as="geometry" />
        </mxCell>
        <mxCell id="nq5gijTAwXcT7DccCSNR-36" value="" style="edgeStyle=orthogonalEdgeStyle;rounded=0;orthogonalLoop=1;jettySize=auto;html=1;" edge="1" parent="1" source="nq5gijTAwXcT7DccCSNR-34" target="nq5gijTAwXcT7DccCSNR-35">
          <mxGeometry relative="1" as="geometry" />
        </mxCell>
        <mxCell id="nq5gijTAwXcT7DccCSNR-39" value="" style="edgeStyle=orthogonalEdgeStyle;rounded=0;orthogonalLoop=1;jettySize=auto;html=1;" edge="1" parent="1" source="nq5gijTAwXcT7DccCSNR-34" target="nq5gijTAwXcT7DccCSNR-27">
          <mxGeometry relative="1" as="geometry" />
        </mxCell>
        <mxCell id="nq5gijTAwXcT7DccCSNR-34" value="if (x, y) in&amp;nbsp;&lt;div&gt;currPath&lt;/div&gt;" style="strokeWidth=2;html=1;shape=mxgraph.flowchart.decision;whiteSpace=wrap;" vertex="1" parent="1">
          <mxGeometry x="-250" y="540" width="100" height="100" as="geometry" />
        </mxCell>
        <mxCell id="nq5gijTAwXcT7DccCSNR-38" style="edgeStyle=orthogonalEdgeStyle;rounded=0;orthogonalLoop=1;jettySize=auto;html=1;entryX=0;entryY=0.5;entryDx=0;entryDy=0;" edge="1" parent="1" source="nq5gijTAwXcT7DccCSNR-35" target="nq5gijTAwXcT7DccCSNR-27">
          <mxGeometry relative="1" as="geometry">
            <Array as="points">
              <mxPoint x="-445" y="435" />
            </Array>
          </mxGeometry>
        </mxCell>
        <mxCell id="nq5gijTAwXcT7DccCSNR-35" value="(while currPath.back != (x, y)&lt;div&gt;remove currPath.back)&lt;/div&gt;&lt;div&gt;&lt;br&gt;&lt;/div&gt;&lt;div&gt;remove currPath.back&lt;/div&gt;&lt;div&gt;&lt;br&gt;&lt;/div&gt;" style="rounded=1;whiteSpace=wrap;html=1;strokeWidth=2;" vertex="1" parent="1">
          <mxGeometry x="-540" y="540" width="190" height="100" as="geometry" />
        </mxCell>
      </root>
    </mxGraphModel>
  </diagram>
</mxfile>
